<?xml version="1.0" encoding="UTF-8"?>
<svg id="Layer_2" data-name="Layer 2" xmlns="http://www.w3.org/2000/svg" viewBox="0 0 915.37 122.42">
  <defs>
    <style>
      .cls-1 {
        fill: #e2e2e2;
        stroke-width: 0px;
      }
    </style>
  </defs>
  <g id="Layer_10" data-name="Layer 10">
    <g>
      <g>
        <path class="cls-1" d="M359.87,119.6h-28.26V3.52h25.95l3.47,20.68-3.24-2.82c2.32-5.64,6.56-10.61,12.74-14.92,6.17-4.31,13.9-6.46,23.17-6.46,10.04,0,18.26,2.67,24.67,7.99,6.41,5.33,10.85,12.38,13.32,21.15h-4.63c1.7-8.77,6.06-15.82,13.09-21.15,7.03-5.32,15.56-7.99,25.6-7.99,13.9,0,24.56,3.96,31.97,11.87,7.41,7.91,11.12,18.53,11.12,31.84v75.9h-28.03V51.22c0-8.3-2.05-14.6-6.14-18.92-4.09-4.31-9.54-6.46-16.33-6.46-4.33,0-8.3,1.02-11.93,3.05-3.63,2.04-6.53,5.09-8.69,9.16-2.16,4.08-3.24,9.32-3.24,15.74v65.79h-28.26V50.99c0-8.14-2.01-14.33-6.02-18.56-4.02-4.23-9.35-6.34-15.98-6.34-4.48,0-8.57.98-12.28,2.94-3.71,1.96-6.64,5.02-8.8,9.16-2.16,4.15-3.24,9.36-3.24,15.63v65.79Z"/>
        <path class="cls-1" d="M529.9,61.33c0-12.06,2.62-22.67,7.88-31.84,5.25-9.16,12.51-16.33,21.78-21.5,9.27-5.17,19.77-7.75,31.51-7.75s22.43,2.58,31.62,7.75c9.19,5.17,16.41,12.34,21.66,21.5,5.25,9.16,7.88,19.78,7.88,31.84s-2.63,22.67-7.88,31.84c-5.25,9.16-12.47,16.33-21.66,21.5-9.19,5.17-19.73,7.75-31.62,7.75s-22.24-2.58-31.51-7.75c-9.27-5.17-16.53-12.34-21.78-21.5-5.25-9.16-7.88-19.77-7.88-31.84ZM558.16,61.33c0,7.05,1.43,13.24,4.29,18.56,2.86,5.33,6.72,9.48,11.58,12.45,4.87,2.98,10.54,4.46,17.03,4.46s12.2-1.49,17.14-4.46c4.94-2.97,8.8-7.13,11.58-12.45,2.78-5.32,4.17-11.51,4.17-18.56s-1.39-13.43-4.17-18.68c-2.78-5.25-6.64-9.36-11.58-12.34-4.94-2.97-10.66-4.47-17.14-4.47s-12.16,1.49-17.03,4.47c-4.86,2.98-8.73,7.09-11.58,12.34-2.86,5.25-4.29,11.48-4.29,18.68Z"/>
        <path class="cls-1" d="M667.96,61.33c0-12.06,2.62-22.67,7.88-31.84,5.25-9.16,12.51-16.33,21.78-21.5,9.27-5.17,19.77-7.75,31.51-7.75s22.43,2.58,31.62,7.75c9.19,5.17,16.41,12.34,21.66,21.5,5.25,9.16,7.88,19.78,7.88,31.84s-2.63,22.67-7.88,31.84c-5.25,9.16-12.47,16.33-21.66,21.5-9.19,5.17-19.73,7.75-31.62,7.75s-22.24-2.58-31.51-7.75c-9.27-5.17-16.53-12.34-21.78-21.5-5.25-9.16-7.88-19.77-7.88-31.84ZM696.22,61.33c0,7.05,1.43,13.24,4.29,18.56,2.86,5.33,6.72,9.48,11.58,12.45,4.87,2.98,10.54,4.46,17.03,4.46s12.2-1.49,17.14-4.46c4.94-2.97,8.8-7.13,11.58-12.45,2.78-5.32,4.17-11.51,4.17-18.56s-1.39-13.43-4.17-18.68c-2.78-5.25-6.64-9.36-11.58-12.34-4.94-2.97-10.66-4.47-17.14-4.47s-12.16,1.49-17.03,4.47c-4.86,2.98-8.73,7.09-11.58,12.34-2.86,5.25-4.29,11.48-4.29,18.68Z"/>
        <path class="cls-1" d="M839.85,119.6L794.44,3.52h30.12l19.92,53.34c2.47,6.89,4.59,13.2,6.37,18.92,1.77,5.72,3.05,10.14,3.82,13.28.77-3.6,2.12-8.26,4.05-13.98,1.93-5.72,4.13-11.79,6.6-18.21l20.85-53.34h29.19l-47.72,116.08h-27.8Z"/>
      </g>
      <path class="cls-1" d="M225.07,7.42l-52.24,52.24c-1.32,1.32-3.57.38-3.57-1.48V9.76c0-1.15-.94-2.09-2.09-2.09H58.51c-1.15,0-2.09.94-2.09,2.09v51.38c0,1.15-.94,2.09-2.09,2.09H2.09c-1.15,0-2.09.94-2.09,2.09v52.24c0,1.15.94,2.09,2.09,2.09h53.47c.55,0,1.09-.22,1.48-.61l54.33-54.33c.39-.39.92-.61,1.48-.61h0v53.69c0,1.15.94,2.09,2.09,2.09h54.33v-.22l52.85-52.85c1.32-1.32,3.57-.38,3.57,1.48v49.29c0,1.15.94,2.09,2.09,2.09h52.24c1.15,0,2.09-.94,2.09-2.09V8.9c0-1.15-.94-2.09-2.09-2.09h-53.47c-.55,0-1.09.22-1.48.61Z"/>
    </g>
  </g>
</svg>