<?xml version="1.0" encoding="UTF-8"?>
<svg id="Layer_2" data-name="Layer 2" xmlns="http://www.w3.org/2000/svg" viewBox="0 0 282.1 113.06">
  <defs>
    <style>
      .cls-1 {
        stroke-width: 0px;
      }
    </style>
  </defs>
  <g id="Layer_10" data-name="Layer 10">
    <path class="cls-1" d="M225.07.61l-52.24,52.24c-1.32,1.32-3.57.38-3.57-1.48V2.95c0-1.15-.94-2.09-2.09-2.09H58.51c-1.15,0-2.09.94-2.09,2.09v51.38c0,1.15-.94,2.09-2.09,2.09H2.09c-1.15,0-2.09.94-2.09,2.09v52.24c0,1.15.94,2.09,2.09,2.09h53.47c.55,0,1.09-.22,1.48-.61l54.33-54.33c.39-.39.92-.61,1.48-.61h0v53.69c0,1.15.94,2.09,2.09,2.09h54.33v-.22l52.85-52.85c1.32-1.32,3.57-.38,3.57,1.48v49.29c0,1.15.94,2.09,2.09,2.09h52.24c1.15,0,2.09-.94,2.09-2.09V2.09c0-1.15-.94-2.09-2.09-2.09h-53.47c-.55,0-1.09.22-1.48.61Z"/>
  </g>
</svg>